<svg xmlns="http://www.w3.org/2000/svg" viewBox="0 0 48 48"><defs><linearGradient id="a" gradientUnits="userSpaceOnUse" x1="20.529" y1="20.1" x2="21.09" y2="-6.355"><stop stop-color="#2eb435"/><stop offset="1" stop-color="#6fe135"/></linearGradient></defs><path d="M20.639-6.379c-.013.03-.037.028-.06.027h-.021c-.396.035-.792.08-1.183.154-2.862.542-5.211 1.947-7.03 4.217-1.496 1.866-2.32 4.01-2.498 6.395-.021.287-.032.574-.033.86v.038c0 .853.096 1.699.284 2.536.188.841.47 1.654.848 2.431.033.066.066.133.1.198a11.665 11.665 0 0 0 4.123 4.586c1.869 1.186 3.91 1.809 6.126 1.836.136.002.173.035.172.174-.006 1.186-.004 2.373-.003 3.56 0 .046.004.092.006.149.038-.016.062-.024.086-.035 2.228-1.047 4.275-2.37 6.099-4.03.363-.33.71-.676 1.044-1.035.143-.154.285-.311.428-.464.221-.237.413-.502.622-.751.241-.288.457-.593.671-.901.472-.68.893-1.389 1.248-2.138.179-.379.35-.761.501-1.151.005-.007.012-.014.015-.022.412-1.07.675-2.177.816-3.313.049-.396.081-.794.101-1.192.009-.18.014-.359.014-.538v-.039c0-.662-.061-1.32-.181-1.973a11.542 11.542 0 0 0-2.951-5.886A11.414 11.414 0 0 0 27.78-4.53a11.533 11.533 0 0 0-4.944-1.778c-.218-.026-.439-.023-.653-.074h-1.541" fill="url(#a)" transform="translate(-12.791 11.662) scale(1.71427)"/><path d="M33.649 14.299c.615 0 1.126.62.929 1.229.046.115.04.236.04.356v7.846c-.001 2.337-1.467 4.523-3.625 5.421-.055.022-.106.053-.16.079a.16.16 0 0 0 .13.062h-.001a.158.158 0 0 1-.128-.062c-.03.008-.059.002-.09.024-.001.01-.032.019-.05.029-.45.127-.904.233-1.37.302-.355.051-.623-.148-.628-.506l-.007-.75.012-1.345c0-.1-.007-.197-.005-.296 0-.345.134-.489.56-.587.542-.123 1.053-.298 1.477-.69.507-.472.762-1.058.879-1.715l-4.39-.008h-.479c-.598-.01-1.006-.424-1.006-1.024 0-2.366.004-4.731.007-7.099 0-.022-.003-.044-.003-.068-.047-.443.082-.806.474-1.053a.907.907 0 0 1 .496-.135h6.943m-12.35-.01c.617 0 1.126.62.93 1.229.047.115.039.236.039.356 0 2.611.015 5.222-.005 7.833-.014 1.731-.688 3.19-1.956 4.371-.067.062-.13.125-.196.189-.658.504-1.37.9-2.175 1.12a9.002 9.002 0 0 1-1.043.196c-.27.04-.445-.111-.546-.355 0-.75 0-1.501.003-2.254.012-.221-.075-.458.101-.653a.627.627 0 0 1 .322-.197c.395-.1.792-.178 1.15-.393a2.632 2.632 0 0 0 1.254-1.704c.029-.116.055-.235.082-.351-1.584-.004-3.17-.005-4.754-.009-.137 0-.272-.005-.406-.04-.404-.112-.713-.48-.713-.897-.003-2.397 0-4.792.003-7.188-.032-.383 0-.74.323-1.015a.904.904 0 0 1 .596-.238h6.988" fill="#fff" fill-opacity=".853"/></svg>