<svg viewBox="0 0 512 512" xmlns="http://www.w3.org/2000/svg"><path d="M461.1 70.3c4.5-2.7 9.1-1.2 13.5 0 17.1 4.7 29.2 20.4 29.5 38.3.1 4.5-.1 9-.1 13.4-1.3 0-2.1.8-3.1 1.5-12.6 9-25.4 18-37.9 27.1-5.1 3.7-10.7 6.6-15 11.3-1.8 0-3.1 1.2-4.4 2.1-41.6 28.7-83.2 57.3-124.7 86-20.6 14.2-41.2 28.6-61.8 42.9h-1.7c-.9-.7-1.7-1.6-2.6-2.2L100.7 184.8c-10.4-7.2-20.8-14.5-31.2-21.7-1.2-.8-2.3-2.5-3.8-1.6-1.4.8-.5 2.7-.7 4.2-.1.5 0 1 0 1.5v250.5c0 1.8.1 3.7.2 5.5 0 1-.1 1.9-.1 2.9-19 2.3-36.3-.3-48.2-17.5-4.3-6.3-6.8-13.3-6.8-21.1 0-93.3-.1-186.5.1-279.8 0-19 15.4-35.8 34.3-38.5 3-.4 6-.8 8.6 1.2.6.6 1.1 1.2 1.8 1.7 66.1 49 132.2 98 198.3 147.1 2.6 1.9 4.3 1.8 6.9-.1 52.8-39 105.7-77.9 158.5-116.8 14-10.7 28.2-21.4 42.5-32z" fill="#E65A4D"/><path d="M461.1 70.3c-14.3 10.6-28.5 21.3-42.8 31.9-52.8 39-105.7 77.8-158.5 116.8-2.6 1.9-4.2 2-6.9.1-66-49.1-132.1-98-198.2-147.1-.7-.5-1.2-1.1-1.8-1.7 1.2-2 3.3-1.3 5-1.3h398.2c1.7 0 3.7-.7 5 1.3z" fill="#F6F4EC"/><path d="M65 423c-.1-1.8-.2-3.7-.2-5.5V167c0-.5-.1-1 0-1.5.2-1.4-.7-3.3.7-4.2 1.5-.9 2.7.8 3.8 1.6 10.4 7.2 20.8 14.5 31.2 21.7l152.1 105.9c.9.7 1.8 1.5 2.6 2.2-.4.4-.9.7-1.3 1.1l-1 1c-.8 0-1.6.2-2 1l-1 1c-.1.2-.3.3-.4.5.2-.1.3-.3.5-.4l1-1c.8 0 1.6-.2 2-1l1-1c1 0 2-.1 3-.1 13.9 9.7 27.9 19.3 41.8 29 41.4 28.7 82.8 57.3 124.1 86.2 7.4 5.2 15.5 9.7 22.1 16-1.8 1.7-4 .6-6 .9.1-2.3-1.9-2.9-3.4-3.9-7.6-5.3-15.4-10.4-22.8-15.9-12.4-9.1-25-17.8-37.6-26.6-10.5-7.3-20.9-14.9-31.7-21.8-9.4-6-18.1-13.2-27.5-19.3-10.6-6.8-20.6-14.4-31.1-21.3-8.7-5.7-17.2-11.8-25.7-17.8-1.7-1.2-3.2-1.7-5-.5-3.6 2.6-8.2 4.3-11.2 7.1-8.6 7.9-19.1 13-28.1 20.2-11.5 9.1-23.9 17.2-36.2 25.3-20.4 13.5-40.2 28.1-60.5 41.7-12.1 8.1-24.1 16.3-35.7 25.2-3.2 2.4-7.5 3.5-9.5 7.5-2-.2-4.2.6-6.1-.7 35.8-25 71.6-49.9 107.3-74.9 4.7-3.3 10-5.9 13.9-10.3.7-.2 1.6-.3 1.5-1.3 0-.1-.2-.3-.3-.3-1-.1-1.2.7-1.4 1.4-3.6.2-5.8 3-8.5 4.8-38.1 26.3-76.3 52.4-114.4 78.5zm172-117l1-1c.8 0 1.6-.2 2-1l1-1c.8 0 1.6-.2 2-1 .1-.2.3-.3.4-.5-.2.1-.3.3-.5.4-.8 0-1.6.2-2 1l-1 1c-.8 0-1.6.2-2 1-.3.4-.6.7-.9 1.1-.2.1-.4.2-.5.4.2-.1.4-.2.5-.4zm-13 8.9c-.8 0-1.6.2-2 1-.6.1-1.4.1-1.5 1 0 .2.4.6.6.6.8-.1.9-.8 1-1.4.8-.1 1.5-.2 1.9-1.2.4-.2.8-.6 1.1-.9.8 0 1.6-.2 2-1l1-1c.8 0 1.6-.2 2-1 .1-.2.3-.3.4-.5-.2.1-.3.3-.5.4-.8 0-1.6.2-2 1l-1 1c-.8 0-1.6.2-2 1l-1 1zm-13 9.1c-.8 0-1.6.2-2 1-.8.1-1.6.2-1.5 1.3 0 .1.2.3.3.3 1.1.1 1.2-.7 1.3-1.5.8-.1 1.5-.3 1.9-1.1.4-.2.7-.6 1.1-.9.8 0 1.6-.2 2-1l1-1c.8 0 1.6-.2 2-1 .1-.2.3-.3.4-.5-.2.1-.3.3-.5.4-.8 0-1.6.2-2 1l-1 1c-.8 0-1.6.2-2 1-.4.3-.7.6-1 1zm-10 7.1c.8-.1 1.6-.2 1.5-1.3 0-.1-.2-.3-.3-.3-1.1-.1-1.2.7-1.3 1.5-.8 0-1.5.2-2 1-1.4.1-2.4.8-3 2-.7.2-1.6.2-1.5 1.3 0 .1.2.3.3.3 1 .1 1.2-.7 1.3-1.5 1.4 0 2.8-.1 3-2 .9-.1 1.6-.3 2-1zm32.8-23.7c-.1.3-.3.6-.4.8.3.1.6.4.8.3.2-.1.3-.5.4-.8-.3-.1-.6-.2-.8-.3zm-28.1 20.7c-.1-.3-.2-.7-.4-.7-.2-.1-.7.1-.8.3-.3.4-.1.9.4.9.3 0 .5-.3.8-.5zm41.6-28.5c.1-.3.2-.6.4-.8-.3-.1-.6-.4-.8-.3-.2.1-.3.5-.4.8.2.1.5.2.8.3zM192.7 337c-.2-.3-.4-.6-.5-.7-.2 0-.7.2-.7.4-.2.5.1.9.6.8.2 0 .4-.3.6-.5z" fill="#E6E3D6"/><path d="M445 425.1c-6.6-6.4-14.6-10.8-22.1-16-41.3-28.8-82.7-57.5-124.1-86.2-13.9-9.7-27.9-19.3-41.8-29 0-.3-.1-.7-.1-1l61.8-42.9c41.6-28.7 83.2-57.3 124.7-86 1.3-.9 2.6-2.1 4.4-2.1V426c-.8-.3-1.8-.6-2.8-.9z" fill="#B6B5AC"/><path d="M73 426c1.9-4 6.3-5.1 9.5-7.5 11.6-8.8 23.6-17.1 35.7-25.2 20.3-13.7 40.1-28.2 60.5-41.7 12.3-8.1 24.7-16.2 36.2-25.3 9.1-7.2 19.5-12.3 28.1-20.2 3.1-2.8 7.6-4.5 11.2-7.1 1.7-1.3 3.2-.8 5 .5 8.5 6 17 12.1 25.7 17.8 10.5 6.9 20.5 14.6 31.1 21.3 9.4 6 18.1 13.2 27.5 19.3 10.8 6.9 21.2 14.5 31.7 21.8 12.6 8.8 25.3 17.5 37.6 26.6 7.5 5.5 15.2 10.6 22.8 15.9 1.4 1 3.5 1.6 3.4 3.9-122-.1-244-.1-366-.1z" fill="#E6E3D6"/><path d="M448 426V161.9c4.3-4.7 9.9-7.6 15-11.3 12.6-9.2 25.3-18.1 37.9-27.1.9-.7 1.8-1.5 3.1-1.5.1 1.7.2 3.3.2 5 0 85.1 0 170.3.1 255.4 0 5.8-.2 11.6-1.6 17.4-2.5 10.7-8.9 18.1-19.3 21.8-11.5 4-23.4 5.1-35.4 4.4z" fill="#B1392F"/><path d="M188.1 340.1c-3.9 4.4-9.2 7-13.9 10.3-35.7 25-71.5 50-107.3 74.9-.7.2-1.3.4-2 .6 0-1 .1-1.9.1-2.9 38.2-26.1 76.3-52.2 114.5-78.3 2.7-1.8 4.8-4.7 8.5-4.8l.1.2z" fill="#BEBDB3"/><path d="M257 292.9c0 .3 0 .7.1 1-1 0-2 .1-3 .1.4-.4.9-.7 1.3-1.1h1.6z" fill="#C7C5BB"/><path d="M195.9 333.9c.6-1.2 1.6-1.9 3-2l.1.1c-.2 1.9-1.6 2-3 2l-.1-.1z" fill="#BEBDB3"/><path d="M233.8 307.4c.3.1.6.2.8.3-.1.3-.2.7-.4.8-.2.1-.5-.2-.8-.3.1-.2.2-.5.4-.8z" fill="#C4C2B8"/><path d="M200.9 330.9c.1-.8.3-1.5 1.3-1.5.1 0 .3.2.3.3 0 1.1-.8 1.1-1.5 1.3 0 .1-.1-.1-.1-.1zm4.8-2.8c-.2.2-.5.5-.7.4-.5 0-.7-.5-.4-.9.1-.2.6-.3.8-.3.1.1.1.6.3.8z" fill="#BEBDB3"/><path d="M247.3 299.6c-.3-.1-.6-.2-.8-.4.1-.3.2-.7.4-.8.2-.1.5.2.8.3-.2.3-.3.6-.4.9z" fill="#C7C5BB"/><path d="M209.1 325.1c-.1.8-.3 1.5-1.3 1.5-.1 0-.3-.2-.3-.3 0-1.1.8-1.1 1.5-1.3l.1.1z" fill="#BEBDB3"/><path d="M222.1 316.1c-.1.7-.2 1.3-1 1.4-.2 0-.6-.4-.6-.6.1-.8.8-.9 1.5-1 0 .1.1.2.1.2z" fill="#C2C0B6"/><path d="M196.1 334.1c-.2.8-.3 1.5-1.3 1.5-.1 0-.3-.2-.3-.3-.1-1.1.8-1.1 1.5-1.3l.1.1zm-3.4 2.9c-.2.2-.4.5-.6.5-.6.1-.8-.3-.6-.8.1-.2.5-.4.7-.4.1.1.3.5.5.7zm-4.8 2.9c.2-.8.3-1.5 1.4-1.4.1 0 .3.2.3.3.1 1.1-.8 1.1-1.5 1.3l-.2-.2z" fill="#BEBDB3"/><path d="M240 304c-.4.8-1.2 1-2 1l-.1-.1c.5-.7 1.2-.9 2.1-.9z" fill="#C4C2B8"/><path d="M199 331.9c.4-.8 1.2-1 2-1l.1.1c-.4.8-1.2 1-2 1 0 .1-.1-.1-.1-.1z" fill="#BEBDB3"/><path d="M228 312c.4-.8 1.2-1 2-1l.1.1c-.5.7-1.2.9-2.1.9zm-1 1c-.4.8-1.2 1-2 1 .4-.8 1.1-1 2-1z" fill="#C2C0B6"/><path d="M215 321c.4-.8 1.2-1 2-1l.1.1c-.5.7-1.2.9-2.1.9zm-1 1c-.4.8-1.2 1-2 1 .4-.9 1.1-1 2-1zm-3 2c-.4.8-1.2 1-2 1l-.1-.1c.5-.7 1.2-.9 2.1-.9z" fill="#BEBDB3"/><path d="M253 295c-.4.8-1.2 1-2 1l-.1-.1c.5-.7 1.2-.9 2.1-.9z" fill="#C7C5BB"/><path d="M241 303c.4-.8 1.2-1 2-1-.4.8-1.1 1-2 1z" fill="#C4C2B8"/><path d="M224 315c-.4.8-1.2 1-2 1l-.1-.1c.5-.7 1.2-.9 2.1-.9 0-.1 0 0 0 0z" fill="#C2C0B6"/><path d="M214 322l1-1 .1.1c-.4.3-.7.6-1.1.9z" fill="#BEBDB3"/><path d="M225 314l-1 1-.1-.1c.4-.3.7-.6 1.1-.9z" fill="#C2C0B6"/><path d="M237 306l1-1 .1.1c-.4.3-.7.6-1.1.9z" fill="#C4C2B8"/><path d="M230 311c.2-.1.3-.3.5-.4-.2.1-.3.3-.5.4z" fill="#C2C0B6"/><path d="M243 302c.2-.1.3-.3.5-.4-.2.1-.3.3-.5.4z" fill="#C4C2B8"/><path d="M250 297c-.2.1-.3.3-.5.4.2-.1.3-.3.5-.4zm0 0l1-1 .1.1c-.4.3-.7.6-1.1.9z" fill="#C7C5BB"/><path d="M240 304l1-1 .1.1c-.4.3-.7.6-1.1.9z" fill="#C4C2B8"/><path d="M254 294l-1 1-.1-.1c.4-.3.7-.6 1.1-.9z" fill="#C7C5BB"/><path d="M237 306c-.2.1-.3.3-.5.4.2-.1.3-.3.5-.4z" fill="#C4C2B8"/><path d="M217 320c.2-.1.3-.3.5-.4-.2.1-.3.3-.5.4z" fill="#BEBDB3"/><path d="M228 312l-1 1-.1-.1c.4-.3.7-.6 1.1-.9z" fill="#C2C0B6"/><path d="M212 323l-1 1-.1-.1c.4-.3.7-.6 1.1-.9z" fill="#BEBDB3"/></svg>